<?xml version="1.0" encoding="UTF-8"?>
<svg id="Layer_1" xmlns="http://www.w3.org/2000/svg" version="1.1" viewBox="0 0 271.03 257.01">
  <!-- Generator: Adobe Illustrator 30.4.0, SVG Export Plug-In . SVG Version: 2.1.4 Build 226)  -->
  <defs>
    <style>
      .st0 {
        fill: #010101;
      }

      .st1 {
        fill: #cca044;
      }

      .st2 {
        fill: #fcfcfc;
      }
    </style>
  </defs>
  <path class="st2" d="M253.46,224.34l-235.61-.02c-2.39,0-3.92-2.45-3.94-4.37-.02-2.14,1.58-4.5,3.97-4.51l24.71-.07-.02-92.48c.11-1.98.9-3.61,2.6-4.59l40.55-23.21v-35.71c0-1.93.88-3.39,2.42-4.45l44.31-30.56c1.78-1.23,4.03-1.23,5.8,0l44.99,31.19c1.04,1.15,1.78,2.16,1.78,3.79v72.38s28.86,15.14,28.86,15.14l11.73,6.25c1.66.95,2.74,2.52,2.74,4.59v57.66s24.79.05,24.79.05c2.27,0,3.78,2.13,3.95,4.07.2,2.24-1.12,4.24-3.65,4.86ZM176.76,79.01l.03-17.17-37.38-25.82-.05,16.95,21.65,15.01,15.75,11.03ZM176.74,106.37l.05-16.82-37.4-25.79v16.73s37.34,25.89,37.34,25.89ZM119.51,79.25c2.47,0,4.16-2.32,4.02-4.46s-1.96-3.83-4.29-3.81l-15.78.11c-2.42.02-4.09,2-4.03,4.2.05,1.97,1.61,4,3.93,3.99l16.15-.02ZM119.44,97.12c2.43,0,4.04-2.16,3.96-4.15-.08-2.13-1.8-3.98-4.12-3.96l-15.77.09c-2.33.01-4.03,2.04-3.97,4.13.05,1.97,1.73,3.95,3.96,3.94l15.95-.05ZM176.75,133.82v-16.83s-37.33-25.82-37.33-25.82l-.04,16.7,21.97,15.23,15.4,10.73ZM85.7,215.01v-109.91s-34.94,19.98-34.94,19.98v89.97s34.94-.05,34.94-.05ZM119.44,115.07c2.42,0,4.03-2.12,3.96-4.16s-1.77-4.01-4.02-3.99l-16.11.13c-2.25.02-3.8,2.22-3.74,4.11.06,2.04,1.71,3.96,3.96,3.95l15.94-.05ZM176.72,161.11l.08-16.73-37.34-25.72-.09,16.5,37.35,25.94ZM119.7,132.17c2.41-.01,3.89-2.42,3.69-4.36s-1.88-3.72-4.11-3.71l-15.77.09c-2.33.01-4.03,2.04-3.98,4.13.05,1.95,1.74,3.96,3.96,3.94l16.21-.1ZM220.17,159.99l-4.76-2.6-30.33-15.98-.04,73.95h35.15s-.01-55.37-.01-55.37ZM119.44,150.16c2.42,0,4.04-2.15,3.96-4.15-.08-2.13-1.8-3.97-4.12-3.96l-15.77.09c-2.33.01-4.03,2.04-3.97,4.13.05,1.97,1.74,3.95,3.96,3.95l15.95-.05ZM176.72,188.4l.08-16.62-37.41-25.79v16.64s37.33,25.77,37.33,25.77ZM119.44,168.11c2.43,0,4.04-2.15,3.96-4.15-.08-2.13-1.8-3.98-4.12-3.96l-15.77.09c-2.33.01-4.03,2.04-3.97,4.13.05,1.97,1.74,3.95,3.96,3.95l15.95-.05ZM176.71,215.53l.07-16.42-37.38-25.71-.03,16.41,37.34,25.72ZM120.34,185.26c2.19-1.01,3.34-2.6,3.01-4.71-.29-1.82-1.94-3.44-4.07-3.42l-15.77.1c-2.33.01-4.03,2.04-3.97,4.13.05,1.97,1.74,3.96,3.96,3.95l16.84-.05ZM119.93,203.11c2.33-.02,3.64-2.53,3.46-4.31-.21-2.04-1.88-3.72-4.11-3.71l-15.77.09c-2.33.01-4.03,2.03-3.98,4.13.05,1.93,1.74,3.96,3.96,3.94l16.44-.15ZM159.95,215.07l-20.55-14.23-.05,14.27,20.6-.04Z"/>
  <path class="st1" d="M203.41,242.8l-135.78.03c-2.27,0-3.74-2.42-3.88-4.18-.19-2.3,1.18-4.01,3.48-4.84l135.83.02c2.4,0,3.88,2.15,4.07,4.11s-1.03,4.86-3.71,4.86Z"/>
  <path class="st0" d="M85.7,215.01l-34.93.05v-89.97s34.94-19.98,34.94-19.98v109.91ZM78.45,206.16v-84.55c-.01-1.96-1.93-3.08-3.5-3.03s-3.1,1.38-3.1,3.23l.05,84.51c0,1.9,1.9,3.05,3.31,3.02,1.58-.03,3.25-1.08,3.25-3.18ZM63.85,208.19c.37-.52.7-1.21.83-1.84v-69.55c0-2.07-1.51-3.49-3.38-3.49-1.65,0-3.27,1.27-3.26,3.2l.02,69.79c0,1.46,1.18,2.45,2.15,2.82,1.24.47,2.81.23,3.63-.94Z"/>
  <path class="st0" d="M220.17,159.99v55.36s-35.14.01-35.14.01l.04-73.95,30.33,15.98,4.76,2.6ZM199.09,206.23l-.02-49.8c0-1.77-2.03-2.95-3.29-2.9-1.54.06-3.14,1.27-3.14,3.1v49.74c0,1.82,1.92,3.04,3.36,2.98s3.09-1.19,3.09-3.12ZM213.13,206v-35.46c0-2-1.6-3.45-3.42-3.34-1.56.1-3.09,1.48-3.09,3.34l.03,35.82c0,1.82,1.88,3.03,3.29,2.99,1.72-.05,3.19-1.33,3.19-3.35Z"/>
  <polygon class="st0" points="176.76 79.01 161.01 67.97 139.36 52.97 139.42 36.01 176.8 61.84 176.76 79.01"/>
  <polygon class="st0" points="176.74 106.37 139.39 80.49 139.4 63.76 176.79 89.55 176.74 106.37"/>
  <polygon class="st0" points="176.75 133.82 161.34 123.09 139.38 107.86 139.42 91.16 176.75 116.98 176.75 133.82"/>
  <polygon class="st0" points="176.72 161.11 139.37 135.16 139.46 118.66 176.8 144.38 176.72 161.11"/>
  <polygon class="st0" points="176.72 188.4 139.39 162.63 139.39 145.99 176.8 171.78 176.72 188.4"/>
  <polygon class="st0" points="176.71 215.53 139.37 189.81 139.4 173.4 176.78 199.11 176.71 215.53"/>
  <path class="st0" d="M119.51,79.25l-16.15.02c-2.32,0-3.88-2.02-3.93-3.99-.06-2.2,1.61-4.18,4.03-4.2l15.78-.11c2.33-.02,4.15,1.68,4.29,3.81s-1.54,4.46-4.02,4.46Z"/>
  <path class="st0" d="M119.44,115.07l-15.94.05c-2.25,0-3.9-1.92-3.96-3.95-.06-1.89,1.49-4.09,3.74-4.11l16.11-.13c2.25-.02,3.96,1.98,4.02,3.99s-1.55,4.15-3.96,4.16Z"/>
  <path class="st0" d="M119.44,97.12l-15.95.05c-2.22,0-3.91-1.98-3.96-3.94-.05-2.09,1.65-4.11,3.97-4.13l15.77-.09c2.32-.01,4.04,1.83,4.12,3.96.07,2-1.54,4.15-3.96,4.15Z"/>
  <path class="st0" d="M119.44,150.16l-15.95.05c-2.22,0-3.91-1.98-3.96-3.95-.05-2.09,1.65-4.11,3.97-4.13l15.77-.09c2.32-.01,4.05,1.83,4.12,3.96.07,2-1.54,4.14-3.96,4.15Z"/>
  <path class="st0" d="M119.44,168.11l-15.95.05c-2.22,0-3.91-1.98-3.96-3.95-.05-2.09,1.65-4.12,3.97-4.13l15.77-.09c2.32-.01,4.05,1.84,4.12,3.96.07,2-1.54,4.15-3.96,4.15Z"/>
  <path class="st0" d="M120.34,185.26l-16.84.05c-2.22,0-3.91-1.99-3.96-3.95-.05-2.09,1.64-4.11,3.97-4.13l15.77-.1c2.13-.01,3.78,1.6,4.07,3.42.33,2.1-.82,3.7-3.01,4.71Z"/>
  <path class="st0" d="M119.93,203.11l-16.44.15c-2.22.02-3.91-2.01-3.96-3.94-.05-2.1,1.64-4.12,3.98-4.13l15.77-.09c2.23-.01,3.9,1.67,4.11,3.71.18,1.78-1.12,4.29-3.46,4.31Z"/>
  <path class="st0" d="M119.7,132.17l-16.21.1c-2.22.01-3.91-1.99-3.96-3.94-.05-2.09,1.64-4.12,3.98-4.13l15.77-.09c2.23-.01,3.9,1.69,4.11,3.71s-1.28,4.35-3.69,4.36Z"/>
  <polygon class="st0" points="159.95 215.07 139.35 215.11 139.4 200.84 159.95 215.07"/>
  <path class="st1" d="M78.45,206.16c0,2.1-1.67,3.15-3.25,3.18-1.41.03-3.3-1.12-3.31-3.02l-.05-84.51c0-1.85,1.61-3.19,3.1-3.23s3.49,1.07,3.49,3.03v84.55Z"/>
  <path class="st1" d="M63.85,208.19c-.82,1.17-2.39,1.41-3.63.94-.97-.36-2.15-1.35-2.15-2.82l-.02-69.79c0-1.93,1.61-3.19,3.26-3.2,1.87,0,3.37,1.41,3.37,3.49v69.55c-.13.62-.46,1.31-.83,1.84Z"/>
  <path class="st1" d="M199.09,206.23c0,1.93-1.67,3.07-3.09,3.12s-3.36-1.16-3.36-2.98v-49.74c0-1.83,1.59-3.04,3.13-3.1,1.26-.05,3.29,1.13,3.29,2.9l.02,49.8Z"/>
  <path class="st1" d="M213.13,206c0,2.02-1.47,3.3-3.19,3.35-1.41.04-3.29-1.17-3.29-2.99l-.03-35.82c0-1.86,1.53-3.25,3.09-3.34,1.82-.11,3.42,1.34,3.42,3.34v35.46Z"/>
</svg>